<?xml version="1.0" standalone="no"?>
<!DOCTYPE svg PUBLIC "-//W3C//DTD SVG 1.1//EN" "http://www.w3.org/Graphics/SVG/1.1/DTD/svg11.dtd">
<svg xmlns="http://www.w3.org/2000/svg">
<metadata>Copyright (C) 2022 by original authors @ fontello.com</metadata>
<defs>
<font id="eby" horiz-adv-x="1000" >
<font-face font-family="eby" font-weight="400" font-stretch="normal" units-per-em="1000" ascent="850" descent="-150" />
<missing-glyph horiz-adv-x="1000" />
<glyph glyph-name="star-half" unicode="&#xe800;" d="M464 832v-747l-250-132q-12-7-23-7-11 0-17 9t-6 19q0 4 1 12l48 279-203 197q-14 15-14 27 0 21 31 26l280 40 126 254q11 23 27 23z" horiz-adv-x="500" />

<glyph glyph-name="star-empty" unicode="&#xe801;" d="M635 290l170 166-235 34-106 213-105-213-236-34 171-166-41-235 211 111 211-111z m294 199q0-12-15-27l-202-197 48-279q0-4 0-12 0-28-23-28-10 0-22 7l-251 132-250-132q-12-7-23-7-11 0-17 9t-6 19q0 4 1 12l48 279-203 197q-14 15-14 27 0 21 31 26l280 40 126 254q11 23 27 23t28-23l125-254 280-40q32-5 32-26z" horiz-adv-x="928.6" />

<glyph glyph-name="star-full" unicode="&#xe802;" d="M929 489q0-12-15-27l-202-197 48-279q0-4 0-12 0-11-6-19t-17-9q-10 0-22 7l-251 132-250-132q-12-7-23-7-11 0-17 9t-6 19q0 4 1 12l48 279-203 197q-14 15-14 27 0 21 31 26l280 40 126 254q11 23 27 23t28-23l125-254 280-40q32-5 32-26z" horiz-adv-x="928.6" />

<glyph glyph-name="clock" unicode="&#xe803;" d="M500 546v-250q0-7-5-12t-13-5h-178q-8 0-13 5t-5 12v36q0 8 5 13t13 5h125v196q0 8 5 13t12 5h36q8 0 13-5t5-13z m232-196q0 83-41 152t-110 111-152 41-153-41-110-111-41-152 41-152 110-111 153-41 152 41 110 111 41 152z m125 0q0-117-57-215t-156-156-215-58-216 58-155 156-58 215 58 215 155 156 216 58 215-58 156-156 57-215z" horiz-adv-x="857.1" />

<glyph glyph-name="sub_play" unicode="&#xe804;" d="M178 15q-30-30-74-30-43 0-73 31t-31 74l0 520q0 44 31 74t73 31q44 0 74-30l343-335q-206-201-343-335z" horiz-adv-x="521" />

<glyph glyph-name="sub_skip" unicode="&#xe805;" d="M104 663q44 0 74-31t31-73l0-418q0-42-31-73t-74-30-74 30-30 73l0 418q0 44 30 74t74 30z m365 0q44 0 74-30t30-74l0-418q0-43-30-73t-74-30-74 30-30 73l0 418q0 44 30 74t74 30z" horiz-adv-x="573" />

<glyph glyph-name="sub_cancel" unicode="&#xe806;" d="M521 663q44 0 74-30t30-74l0-418q0-43-30-73t-74-30l-417 0q-44 0-74 30t-30 73l0 418q0 44 30 74t74 30l417 0z" horiz-adv-x="625" />

<glyph glyph-name="color-pallet" unicode="&#xe807;" d="M400 725c-250 0-400-200-400-300s50-175 150-175 150-25 150-100c0-100 75-175 175-175 325 0 475 175 475 350 0 300-250 400-550 400z m-62-100c34 0 62-28 62-62 0-35-28-63-62-63-35 0-63 28-63 63 0 34 28 62 63 62z m200 0c34 0 62-28 62-62 0-35-28-63-62-63-35 0-63 28-63 63 0 34 28 62 63 62z m200-100c34 0 62-28 62-62 0-35-28-63-62-63-35 0-63 28-63 63 0 34 28 62 63 62z m-575-50c34 0 62-28 62-62 0-35-28-63-62-63-35 0-63 28-63 63 0 34 28 62 63 62z m312-250c41 0 75-34 75-75s-34-75-75-75-75 34-75 75 34 75 75 75z" horiz-adv-x="950" />

<glyph glyph-name="full_coverage_brief" unicode="&#xe808;" d="M542 84c-4 0-7 0-10 0 0 0-1 0-1 0-4 1-8 0-12 0-1 0-1 0-2 0-5 1-9 1-14 1-2 0-4 0-6 0-1 0-3 0-4 0-6 0-11 0-17 0-3 0-6 0-9-1-1 0-3 0-4 0-7 0-13 0-20 0-2 0-4 0-5 0-4 0-7 1-9 5-1 2-3 5-4 7-2 5-5 10-7 14-3 5-6 10-11 15-2 2-4 5-6 7-4 5-9 10-14 14-3 2-5 4-8 6-3 2-7 4-10 5-4 1-41 20-48 22-9 2-18 5-26 9-6 3-13 5-19 7-8 3-17 6-25 10-3 2-6 3-9 4-5 2-10 5-14 8-1 1-3 2-5 2-7 3-13 7-19 12-6 5-12 9-18 14-5 4-10 8-15 12-5 4-9 8-14 12-3 2-5 4-8 7-4 3-8 7-11 10-7 6-14 11-20 17-4 4-9 7-13 11-2 2-4 3-7 4-2 1-3 3-5 4-1 1 0 1 0 2 2 6 2 13 3 19 2 9 3 19 6 28 2 10 4 20 6 31 2 9 4 18 6 27 1 5 2 10 3 15 1 6 2 12 3 17 0 2 1 4 1 6 1 6 3 11 4 17 2 9 4 17 6 26 2 8 3 17 4 26 1 4 2 8 2 12 2 11 4 23 6 34 1 3 1 6 2 10 0 2 1 2 3 2 4 0 8 0 12 0 1 0 1 0 2 0 6 0 11-1 17-1 5 0 9-1 14-1 5 0 10-1 15-2 5-1 11-1 16-2 6-1 12-1 18-2 7-1 15-1 22-1 6 0 12-1 18-2 4 0 8-1 12-1 5 0 9-1 14-1 4 0 8-1 12-1 4 0 7-1 11-1 2 0 5 0 7 0 3 0 6 0 9 0 3 0 6 0 9 0 2 0 3 0 5 0 20 0 40 0 59 0 2 0 4 0 5 0 0 0 1 0 1 0 9 1 18 0 27 0 9 0 19 0 28 0 2 0 4 0 5 0 2 0 3 0 5 0 4 0 9 0 13 0 1 0 2 0 3 0 1 0 2 0 3 0 3 0 5 0 8 0 3 0 6 0 10 1 3 0 6 0 8 0 2 0 5 0 7 0 0 0 1 0 1 0 7 0 13 1 20 1 2 0 4 0 6 0 0 0 1 0 1 0 6 0 12 1 18 1 6 0 11 1 17 1 4 0 7 1 11 1 3 0 7 1 10 1 4 0 8 1 11 1 2 0 4 0 6 1 4 0 7 1 11 1 4 0 8 1 12 1 1 0 1 0 2 0 5 0 9 1 14 1 4 0 8 1 13 1 0 0 1 0 1 0 5 0 9 0 14 1 6 1 12 0 18 1 1 0 1 0 2 0 6 0 11 1 17 2 6 1 12 2 18 3 6 1 12 2 18 3 7 1 15 2 22 4 4 1 8 1 12 2 3 1 6 1 9 2 1 0 2 0 3 0 1 0 2-1 3-2 0 0 6-12 6-14 1-5 2-9 3-14 0-1 1-2 1-4 1-3 2-7 2-10 0-3 1-6 2-8 1-2 1-3 1-5 2-11 4-21 6-31 2-9 4-18 6-27 1-4 2-8 3-12 2-11 5-22 7-32 3-13 7-26 10-39 1-6 3-12 4-17 2-7 4-13 6-20 0-1 1-3 1-4 1-7 3-14 5-21 1-3 2-7 3-10 0 0 0-1 0-1 1-3 0-3-3-4-2 0-3-1-5-3-4-4-7-8-11-11-7-6-13-12-19-18-4-4-8-7-12-10-7-6-15-12-21-18-5-5-11-11-16-16-5-5-11-10-17-14-2-2-4-3-6-5-2-1-25-19-31-21-5-2-10-4-14-7-8-4-16-8-24-11-7-3-26-11-34-13-2-1-29-12-35-15-3-1-5-3-7-4-4-3-42-32-44-35-5-6-9-11-12-18-1-2-1-4-2-6-2-5-3-11-3-17 0 0 0-1 0-1 0-2-2-3-4-4-2-1-5-1-7-1-3 0-5 0-8-1-2 0-5 0-7 0-6-1-11-1-15-1z" horiz-adv-x="1000" />

<glyph glyph-name="shipping" unicode="&#xe809;" d="M357 64q0 29-21 51t-50 21-50-21-22-51 22-50 50-21 50 21 21 50z m-214 286h214v143h-88q-7 0-12-5l-109-109q-5-5-5-12v-17z m714-286q0 29-21 51t-50 21-50-21-22-51 22-50 50-21 50 21 21 50z m143 607v-571q0-8-2-15t-8-10-9-6-13-4-13-1-14 0-12 0q0-59-42-101t-101-42-101 42-42 101h-214q0-59-42-101t-101-42-101 42-42 101h-36q-1 0-12 0t-15 0-12 1-13 4-9 6-8 10-2 15q0 15 10 25t25 11v178q0 5 0 20t0 21 2 19 3 21 8 17 13 17l110 110q11 11 28 18t33 7h89v107q0 15 11 26t25 10h571q15 0 25-10t11-26z" horiz-adv-x="1000" />

<glyph glyph-name="volume-on" unicode="&#xe80a;" d="M429 654v-608q0-14-11-25t-25-10-25 10l-186 186h-146q-15 0-25 11t-11 25v214q0 15 11 25t25 11h146l186 186q10 10 25 10t25-10 11-25z m214-304q0-42-24-79t-63-52q-5-3-14-3-14 0-25 10t-10 26q0 12 6 20t17 14 19 12 16 21 6 31-6 32-16 20-19 13-17 13-6 20q0 15 10 26t25 10q9 0 14-3 39-15 63-52t24-79z m143 0q0-85-48-158t-125-105q-7-3-14-3-15 0-26 11t-10 25q0 22 21 33 32 16 43 25 41 30 64 75t23 97-23 97-64 75q-11 9-43 25-21 11-21 33 0 14 10 25t25 11q8 0 15-3 78-33 125-105t48-158z m143 0q0-128-71-236t-189-158q-7-3-14-3-15 0-25 11t-11 25q0 20 22 33 4 2 12 6t13 6q25 14 46 28 68 51 107 127t38 161-38 161-107 127q-21 15-46 28-4 3-13 6t-12 6q-22 13-22 33 0 15 11 25t25 11q7 0 14-3 118-51 189-158t71-236z" horiz-adv-x="928.6" />

<glyph glyph-name="volume-off" unicode="&#xe80b;" d="M429 654v-608q0-14-11-25t-25-10-25 10l-186 186h-146q-15 0-25 11t-11 25v214q0 15 11 25t25 11h146l186 186q10 10 25 10t25-10 11-25z" horiz-adv-x="428.6" />

<glyph glyph-name="cycle" unicode="&#xe80c;" d="M843 261q0-3 0-4-36-150-150-243t-267-93q-81 0-157 31t-136 88l-72-72q-11-11-25-11t-25 11-11 25v250q0 14 11 25t25 11h250q14 0 25-11t10-25-10-25l-77-77q40-36 90-57t105-20q74 0 139 37t104 99q6 10 30 66 4 13 16 13h107q8 0 13-6t5-12z m14 446v-250q0-14-10-25t-26-11h-250q-14 0-25 11t-10 25 10 25l77 77q-82 77-194 77-75 0-140-37t-104-99q-6-10-29-66-5-13-17-13h-111q-7 0-13 6t-5 12v4q36 150 151 243t268 93q81 0 158-31t137-88l72 72q11 11 25 11t26-11 10-25z" horiz-adv-x="857.1" />

<glyph glyph-name="email" unicode="&#xe80d;" d="M0 28v644q0 8 2 18l460-460q39-39 95-39 55 0 94 39l460 460q2-9 2-18v-644q0-37-26-62t-62-26h-937q-36 0-62 26t-26 62z m63 728q13 4 25 4h937q12 0 25-4l-463-463q-13-12-31-12t-30 12z" horiz-adv-x="1113.3" />

<glyph glyph-name="attention" unicode="&#xe80f;" d="M571 83v106q0 8-5 13t-12 5h-108q-7 0-12-5t-5-13v-106q0-8 5-13t12-6h108q7 0 12 6t5 13z m-1 208l10 257q0 6-5 10-7 6-14 6h-122q-6 0-14-6-5-4-5-12l9-255q0-5 6-9t13-3h103q8 0 14 3t5 9z m-7 522l428-786q20-35-1-70-9-17-26-26t-35-10h-858q-18 0-35 10t-26 26q-21 35-1 70l429 786q9 17 26 27t36 10 36-10 27-27z" horiz-adv-x="1000" />

<glyph glyph-name="calendar" unicode="&#xe810;" d="M71-79h161v161h-161v-161z m197 0h178v161h-178v-161z m-197 197h161v178h-161v-178z m197 0h178v178h-178v-178z m-197 214h161v161h-161v-161z m411-411h179v161h-179v-161z m-214 411h178v161h-178v-161z m428-411h161v161h-161v-161z m-214 197h179v178h-179v-178z m-196 482v161q0 7-6 12t-12 6h-36q-7 0-12-6t-6-12v-161q0-7 6-13t12-5h36q7 0 12 5t6 13z m410-482h161v178h-161v-178z m-214 214h179v161h-179v-161z m214 0h161v161h-161v-161z m18 268v161q0 7-5 12t-13 6h-35q-7 0-13-6t-5-12v-161q0-7 5-13t13-5h35q8 0 13 5t5 13z m215 36v-715q0-29-22-50t-50-21h-786q-29 0-50 21t-21 50v715q0 29 21 50t50 21h72v54q0 37 26 63t63 26h36q37 0 63-26t26-63v-54h214v54q0 37 27 63t63 26h35q37 0 64-26t26-63v-54h71q29 0 50-21t22-50z" horiz-adv-x="928.6" />

<glyph glyph-name="ebybolt" unicode="&#xe818;" d="M583 816l-68-383h195l-295-556 65 383h-195l298 556z" horiz-adv-x="1000" />

<glyph glyph-name="ebydiamond" unicode="&#xe819;" d="M546 614l-38-211h107l-161-305 36 211h-108l164 305z m-51 206l-275-465 275-465 275 465-275 465z" horiz-adv-x="1000" />

<glyph glyph-name="ebybox_v1" unicode="&#xe81b;" d="M760 234l-394-228v395l394 228v-395z m-109 170l17 10-5-37 25 64-17-10 5 37-25-64z m-181-89v-110l49 28 4 22-30-17v28l26 15v19l-26-15v24l30 18v20l-53-32z m160 92l-25-14 27-49v-45l23 14v46l-25 48z m-51-55c0 6-3 9-10 5l-10-6v-32l9 5c7 4 11 10 11 17v11z m0-46c0 6-3 9-10 5l-10-6v-32l9 5c7 4 11 10 11 17v11z m8 23c10 8 15 18 15 25v13c0 9-4 22-30 6l-32-19v-56 0l0-53 25 15c8 5 21 11 27 19 6 9 11 18 11 25l0 17c-1 9-7 11-16 8z m-357-253l121-70v395l-121 69v-394z m523 565l-106 62-401-223 110-64 397 225z" horiz-adv-x="1000" />

<glyph glyph-name="eby" unicode="&#xe81c;" d="M288 522v-69h-106v-83h90v-62h-90v-98h103l-14-70h-171v382h188z m201-382c62 0 96 33 96 88v37c0 36-15 63-56 71 39 7 53 35 53 71v28c0 55-34 88-96 88h-124v-383h127m16 254c0-22-11-33-33-33h-27v98h31c21 0 29-12 29-31v-34z m1-159c0-19-8-30-29-30h-33v99h29c21 0 33-11 33-34v-35z m357 415l-85-182h60l-20-121 89 176h-65l21 127z m-158-128h-86l94-224v-158h82v162l-90 220z" horiz-adv-x="1000" />

<glyph glyph-name="ebybox_v2" unicode="&#xe81d;" d="M770 234l-394-228v395l394 228v-395z m-163 164l-9-55 25 15-38-94 8 55-25-15 39 94z m-12 42l-65-148 65-72 65 147-65 73z m-355-364l121-70v395l-121 70v-395z m523 565l-106 62-401-223 110-64 397 225z" horiz-adv-x="1000" />

<glyph glyph-name="bikini" unicode="&#xe81f;" d="M817 611c9 0 25-27 29-41 13-53 23-119 19-166 0-8-6-22-12-33-19-29-40-58-62-85-50-62-252-206-274-206-62 1 21 1-41 0-19 0-260 189-333 274-5 6-8 14-7 21 7 64 14 128 22 193 1 6 3 11 5 17 8 23 10 23 36 14 66-21 134-35 204-38 122-5 242-2 359 33 8 2 15 4 23 7 6 2 22 10 32 10z" horiz-adv-x="1000" />

<glyph glyph-name="g_string" unicode="&#xe820;" d="M896 596c-4-2-35-18-39-19-19-10-45-25-61-39-5-5-26-30-29-33-5-5-8-10-12-16-7-11-36-61-44-75-10-18-19-37-29-55-6-11-12-22-18-33-9-16-19-32-25-50-4-12-9-24-13-35-1-4-5-7-5-11 0-5-3-9-5-14-5-9-9-19-11-29-2-7-4-15-7-22-7-17-14-42-19-60-3-11-10-11-20-16-3 1-20 1-20 1s-21 4-25 15c-1 5-3 9-5 14-8 17-17 34-25 51-6 12-11 24-17 37-12 24-26 48-38 72-24 46-51 90-82 132-13 17-47 58-48 60-2 2-3 5-5 7-13 18-53 53-53 53s-25 19-33 22-29 7-34 7c-16 1-31 2-47 4-2 0-19 0-16 8 6 17 4 21 11 19 7-1 15-2 22-3 28-3 55-7 83-7 6 0 80-8 80-8s80-9 83-9c18-2 37-2 55-4 10-1 80-4 119-4s91 12 124 17c30 4 78 13 108 17 16 2 33 6 48 11 14 5 27 12 40 19 3 1 16-22 12-24z" horiz-adv-x="1000" />

<glyph glyph-name="cheeky" unicode="&#xe821;" d="M885 462c0-8 0-17 0-25 0-2 0-3-3-3-1 0-2 0-2-1-1-1-2-1-3-2-2-1-4-1-6-1-4 0-8-1-12-2-4-1-9-2-13-4-4-1-8-2-12-3-4-2-9-4-13-6-8-3-15-7-22-11-9-5-18-10-27-16-6-4-11-7-17-11-5-4-11-7-16-11-5-3-10-7-15-11-9-7-18-14-26-22-8-7-15-15-23-22-9-9-17-18-24-27-4-5-8-10-12-15-7-9-13-17-19-27-4-6-8-13-12-19-7-13-15-26-21-40-6-12-11-24-15-37-4-11-7-23-9-34-2-8-3-16-4-24 0-1 0-3 0-4 0-2 0-2-2-3-2 0-3-1-4-2-2-1-4-2-6-2-6-1-12-1-18-2-4 0-7-1-11-1-3 0-7-1-10-1-8 0-17 0-25 0-3 0-7 1-10 1-6 0-13 1-19 2-3 0-6 0-9 1-3 1-5 3-6 6-1 4-1 8-1 12 0 3-1 6-1 9-1 6-2 12-4 17-2 7-4 15-6 22-2 6-3 12-5 17-1 4-3 8-4 11-2 4-3 9-5 13-1 4-3 7-5 11-2 5-4 9-6 14-3 5-5 10-8 15-3 6-6 11-9 17-1 2-2 4-4 6-2 3-4 6-6 10-5 7-9 14-14 21-3 4-5 8-8 12-7 9-14 18-21 26-7 8-14 15-21 22-5 5-10 9-15 14-9 8-18 15-28 23-8 6-16 11-25 17-4 3-9 5-13 8-7 4-13 7-20 11-5 3-10 5-15 8-4 2-8 4-12 6-5 2-9 4-14 6-5 2-11 4-16 6-6 2-12 3-18 4-4 1-8 2-11 2-2 0-3 1-5 1-2 0-4 1-5 1-3 1-4 3-4 6 0 4 0 7 1 11 0 3 0 7 1 10 0 3 1 6 1 9 0 5 1 10 2 15 1 10 2 20 5 31 1 6 2 13 4 19 1 7 3 13 5 20 2 8 5 16 8 23 1 4 2 7 3 11 2 6 4 11 6 16 2 3 4 4 7 4 4 0 8-2 11-4 19-9 39-17 59-25 14-6 29-12 43-17 7-2 13-5 20-7 7-2 15-4 22-6 7-2 14-4 21-6 18-4 36-9 54-12 7-1 14-2 21-3 6-1 12-1 18-2 4-1 7-1 11-1 5 0 10-1 15-2 4 0 9-1 13-1 16-1 31-1 47-1 7 0 14 0 21 1 1 0 1 0 2 0 6 0 13 0 19 1 1 0 3 0 4 0 4 0 7 1 11 1 4 0 8 1 13 1 6 1 12 1 18 2 7 1 13 2 20 3 6 1 11 2 17 3 8 1 17 3 25 4 5 1 10 2 15 3 7 1 14 3 21 4 4 1 8 2 12 3 6 2 12 3 18 5 8 2 17 5 25 7 7 2 13 4 20 6 3 1 7 2 11 3 9 3 18 6 27 10 7 3 14 5 21 8 7 2 14 5 21 7 2 1 5 1 7-1 1 0 1-1 2-1 2 0 2-1 3-2 1-1 2-3 2-5 0-1 1-3 1-4 2-5 4-10 5-16 1-3 2-6 3-10 0-2 1-3 1-4 0-1 1-1 1-2 0-2 0-3 1-5 1-3 1-5 2-8 1-5 2-10 3-15 2-11 4-21 5-32 1-5 1-10 1-16-2-8-1-15-1-22z" horiz-adv-x="1000" />

<glyph glyph-name="thong" unicode="&#xe822;" d="M67 513c0 17 2 35 4 53 2 13 4 26 7 39 0 1 0 1 1 2 1 4 3 5 7 5 4 0 8-1 12-1 10-2 20-3 30-6 12-3 25-6 37-9 9-2 17-4 26-6 13-3 25-7 38-11 17-5 35-10 52-16 21-7 41-12 63-17 16-4 32-7 48-9 13-2 26-4 40-5 14-1 27-2 41-3 16-1 31-1 47-1 9 0 17 1 26 2 12 1 24 3 35 5 8 1 15 3 23 4 6 1 11 2 16 4 12 3 24 6 36 10 19 5 37 10 55 17 11 4 22 7 33 11 8 2 15 5 23 7 11 3 22 6 33 10 9 3 19 5 28 7 12 3 25 7 37 9 8 2 15 3 23 4 4 1 9 2 13 3 2 1 5 1 7 0 1 0 2 0 4 0 2 0 4 0 5-3 1-2 1-4 1-6 2-11 4-21 6-32 1-7 2-14 2-21 1-9 1-18 2-27 0-2 0-5 0-7 0-8 0-17 0-25 0-3-1-4-4-4-1 0-3-1-4-1-1 0-1-1-2-1-15-3-29-6-44-10-9-3-19-5-28-7-5-1-11-3-16-5-8-2-15-4-23-6-9-2-17-5-26-7-10-3-21-5-31-8-10-3-20-6-29-10-12-5-23-13-33-20-13-9-25-19-36-29-9-9-19-17-26-28-5-7-9-14-12-21-6-11-12-22-17-34-10-22-19-45-25-69-5-20-10-40-14-60-3-14-6-28-8-42-2-12-4-24-5-36 0-6-1-12-2-18 0-3-2-4-5-5 0 0 0 0-1 0-7-2-14-2-21-2-8 0-16-1-24-1-12 0-23 1-35 2-1 0-2 0-3 1-2 1-4 3-5 5 0 1 0 2-1 4 0 5 0 10-1 16-1 10-1 21-2 31-2 17-3 33-6 50-2 13-3 26-6 39-2 7-3 14-5 21-5 23-12 46-22 68-4 10-10 20-15 30-2 4-4 7-7 11-3 5-8 10-12 14-9 10-19 20-30 29-8 6-17 12-26 17-11 6-22 12-33 18-14 8-29 13-44 17-12 3-25 6-38 9-20 5-41 11-61 16-12 3-24 6-36 9-9 2-17 4-26 6-4 1-7 2-11 2-3 1-5 3-5 6 5 4 5 10 5 16z" horiz-adv-x="1000" />

<glyph glyph-name="brief" unicode="&#xe823;" d="M555 79c-1 0-2-1-2-2-1-1-3-1-5-2-6-1-12-2-18-3-1 0-1 0-2 0-12-1-24 0-35-1-6 0-12 0-18 1-7 0-14 1-20 2-1 0-2 0-3 1-2 1-3 2-4 4 0 2-1 4-1 5 0 7-2 14-4 20-2 7-5 15-8 21-3 6-6 11-10 16-5 7-11 14-16 21-2 2-4 4-6 6-6 7-13 13-20 20-4 4-9 8-13 12-5 4-9 9-14 13-5 5-11 10-16 15-4 4-8 8-12 12-4 4-9 9-13 14-5 6-10 11-15 17-6 7-12 13-17 20-8 10-16 19-24 29-5 7-11 14-16 20-5 6-10 12-15 18-4 5-8 10-13 15 0 1-1 1-1 1-5 5-10 10-15 15-6 6-12 11-18 16-2 2-4 3-7 5-1 1-3 2-4 3-9 5-18 9-28 12 0 0-1 0-1 0-4 2-5 4-5 9 1 5 1 11 1 16 0 6 1 12 2 19 1 8 2 16 3 25 0 2 1 4 1 6 2 10 4 20 6 30 2 6 3 12 5 17 2 5 4 11 6 16 1 2 1 4 2 5 4 9 7 17 11 26 2 5 4 10 6 14 0 1 1 1 1 2 2 2 3 3 6 2 4-1 7-3 11-4 3-2 7-3 10-4 7-2 13-5 20-7 6-2 11-4 17-6 7-2 13-4 20-6 7-2 15-4 22-7 6-2 11-3 17-5 7-2 15-4 22-6 8-2 17-4 25-6 13-3 26-6 39-9 9-2 19-4 28-5 9-1 18-3 27-4 6-1 12-1 19-2 3 0 6 0 9 0 9-1 18-1 26-1 6 0 13 1 19 1 7 0 14 1 20 2 15 1 29 4 44 6 16 3 31 6 47 9 7 1 14 4 21 5 6 2 13 3 19 5 7 2 14 4 21 6 4 1 9 3 13 4 5 2 10 3 15 5 10 3 20 7 29 10 4 2 9 3 13 5 4 2 9 3 13 5 6 2 11 5 17 7 5 2 9 4 13 6 3 1 5 2 8 0 0 0 0 0 1 0 3-1 5-3 6-6 1-2 2-4 3-6 1-1 1-3 1-4 0 0 0-1 0-1 4-5 6-11 8-17 3-7 6-15 8-23 2-4 3-9 5-13 2-4 3-9 4-13 1-5 3-10 4-15 1-4 1-8 2-12 2-10 3-21 4-31 1-6 1-13 1-19 0-4 0-7 0-11 0-2 0-2-2-3 1-1 1-1 0-2-3-2-6-4-9-6-6-3-11-6-17-10-5-3-10-7-14-11-1-1-3-3-4-4-4-6-9-11-13-17-3-4-6-7-9-11-3-4-6-9-10-13-5-8-11-15-17-22-7-8-13-17-20-25-4-5-9-11-13-16-4-4-7-9-11-13-4-5-8-9-12-14-5-5-9-10-14-15-5-6-10-11-15-17-6-7-13-14-20-21-4-4-8-9-12-13-7-7-14-13-21-20-4-4-8-8-12-12-3-3-6-6-9-9-5-5-9-10-14-15-2-3-5-5-7-8-2-2-4-5-5-7-2-3-4-6-6-9-2-3-5-6-6-10-1-3-3-6-5-9-1-2-2-4-3-6-1-2-1-3-2-5-1-5-2-10-3-15 7 0 5-7 3-8z m-403 352c-1 0-1 0-1-1 0-1 0-1 1-2 0 0 1-1 1 0 0 0 0 1 0 2 0 1 0 1-1 1z" horiz-adv-x="1000" />

<glyph glyph-name="ruler" unicode="&#xe828;" d="M830 495c-2-2-5-4-7-6-155-155-310-310-465-465-2-2-3-4-5-6-1 0-2 0-2 0-2 2-3 5-5 7-57 55-113 112-169 168-2 2-4 3-7 5 0 2 0 3 0 5 4 3 8 6 11 9 152 152 305 305 457 457 3 3 5 8 9 14 63-65 123-125 183-185 0-1 0-2 0-3z m-479-417c140 140 280 280 418 418-40 40-81 81-122 122-5-5-10-10-17-17 16-16 31-30 45-44-9-10-18-20-29-32-15 16-29 32-43 47-10-9-19-18-30-29 16-15 32-30 47-44-10-10-19-19-29-30-14 15-29 31-42 45-10-10-19-19-30-29 15-14 30-29 44-43-9-10-18-19-30-31-15 16-29 32-43 47-12-12-23-23-36-35 25-25 49-49 72-72-9-10-17-20-27-31-25 25-50 50-72 72-11-11-22-22-35-34 14-14 29-28 44-43-10-9-19-18-30-29-14 15-29 31-43 46-10-9-19-18-29-28 16-15 31-30 44-44-9-11-18-20-28-32-15 16-30 31-43 45-10-9-19-17-31-28 16-15 32-30 47-45-9-9-18-18-28-29-15 16-29 32-43 47-9-8-16-14-22-20 40-39 81-80 121-120z" horiz-adv-x="1000" />

<glyph glyph-name="account-girl" unicode="&#xe82d;" d="M905-98c-13 0-23 10-23 23 0 46-18 84-54 115-27 23-71 36-114 48-48 14-97 28-131 58-20 17-36 39-48 65-5 11 0 25 11 30 11 5 25 0 30-11 9-19 21-36 36-49 27-23 71-36 114-48 48-14 97-28 132-58 46-40 69-90 69-150 1-13-9-23-22-23z m-818 0c-13 0-23 10-23 23 0 60 23 110 69 150 35 30 84 44 132 58 43 12 87 25 114 48 15 13 27 30 36 49 5 11 19 17 30 11 11-5 17-19 11-30-11-25-28-47-48-65-34-30-84-44-131-58-43-12-87-25-114-48-36-31-54-69-54-115 1-13-9-23-22-23z m409 352c-91 0-170 80-170 170 0 13 10 23 23 23 40 0 170 12 170 170 0 11 8 20 18 22 11 2 21-4 25-14 12-30 40-48 84-54 11-2 19-11 19-23v-125c2-89-78-169-169-169z m-123 149c12-60 70-103 123-103 59 0 125 53 125 125v106c-25 6-46 15-63 28-21-104-102-149-185-156z m339-228c-13 0-23 10-23 23v352c0 107-87 193-193 193-106 0-193-87-193-193v-352c0-13-10-23-23-23s-23 10-23 23v352c0 132 107 239 239 239 132 0 239-107 239-239v-352c0-13-10-23-23-23z" horiz-adv-x="1000" />

<glyph glyph-name="minicart-empty" unicode="&#xe82e;" d="M1157-32c0 6-1 12-1 17l-82 530c-9 57-58 100-116 100l-127 0c-39 136-120 206-243 206-123 0-204-70-242-206l-127 0c-59 0-108-43-117-100l-81-530c-10-64 34-124 98-134 6-1 12-1 18-1l902 0c65 0 118 53 118 118m-387 647l-364 0c33 98 93 147 182 147 90 0 150-49 182-147m328-647c0-33-26-59-59-59l-902 0c-3 0-6 0-9 0-15 3-29 11-38 24-10 12-13 28-11 44l81 529c5 29 29 50 59 50l113 0c-3-18-6-36-8-56-2-16 10-31 26-32 16-2 31 10 32 26 2 22 5 43 9 62l394 0c4-19 7-40 9-62 2-15 15-26 29-26 1 0 2 0 3 0 17 1 28 16 27 32-2 20-5 38-9 56l114 0c29 0 54-21 58-50l81-529c1-3 1-6 1-9" horiz-adv-x="1176" />

<glyph glyph-name="instagram---black" unicode="&#xe82f;" d="M500 850c136 0 153-1 206-3 53-2 90-11 122-23 32-13 60-30 88-58 28-28 45-56 58-88 12-32 21-69 23-122 2-53 3-70 3-206 0-136-1-153-3-206-2-53-11-90-23-121-13-33-30-61-58-89-28-28-56-45-88-58-32-12-69-21-122-23-53-2-70-3-206-3-136 0-153 1-206 3-53 2-90 11-121 23-33 13-61 30-89 58-28 28-45 56-58 89-12 31-21 68-23 121-2 53-3 70-3 206 0 136 1 153 3 206 2 53 11 90 23 122 13 32 30 60 58 88 28 28 56 45 89 58 31 12 68 21 121 23 53 2 70 3 206 3z m0-90c-133 0-149-1-202-3-49-2-75-10-93-17-23-9-40-20-57-38-18-17-29-34-38-57-7-18-15-44-17-93-2-53-3-68-3-202 0-133 1-149 3-202 2-49 10-75 17-93 9-23 20-40 38-57 17-18 34-29 57-38 18-7 44-15 93-17 53-2 69-3 202-3 134 0 149 1 202 3 49 2 75 10 93 17 23 9 40 20 57 38 18 17 29 34 38 57 7 18 15 44 17 93 2 53 3 69 3 202 0 134-1 149-3 202-2 49-10 75-17 93-9 23-20 40-38 57-17 18-34 29-57 38-18 7-44 15-93 17-53 2-68 3-202 3z m0-153c142 0 257-115 257-257 0-142-115-257-257-257-142 0-257 115-257 257 0 142 115 257 257 257z m0-424c92 0 167 75 167 167 0 92-75 167-167 167-92 0-167-75-167-167 0-92 75-167 167-167z m327 434c0-33-27-60-60-60-33 0-60 27-60 60 0 33 27 60 60 60 33 0 60-27 60-60z" horiz-adv-x="1000" />

<glyph glyph-name="hamburger" unicode="&#xe830;" d="M29-32l1118 0c16 0 30-14 30-30l0 0c0-16-14-29-30-29l-1118 0c-16 0-29 13-29 29l0 0c0 16 13 30 29 30z m0 411l883 0c16 0 29-13 29-29l0 0c0-16-13-29-29-29l-883 0c-16 0-29 13-29 29l0 0c0 16 13 29 29 29z m0 412l1118 0c16 0 30-13 30-29l0 0c0-16-14-30-30-30l-1118 0c-16 0-29 14-29 30l0 0c0 16 13 29 29 29z" horiz-adv-x="1176" />

<glyph glyph-name="promo" unicode="&#xe831;" d="M160 354l417 416c14 13 32 21 51 21l358 0c40 0 73-32 73-72l0-356c0-20-8-39-22-52l-441-424c-50-49-131-49-181 0l-254 253c-28 28-43 66-43 106 0 39 15 77 43 105l-1 3z m735 184c37 0 70 22 84 56 14 33 6 72-20 98-26 26-64 33-98 19-34-14-56-46-56-83 0-24 10-47 27-64 17-16 39-26 63-26l0 0z" horiz-adv-x="1176" />

<glyph glyph-name="share" unicode="&#xe832;" d="M991 683l0 148 389-314-389-313 0 149c-261 32-451-63-570-187 92 399 384 507 570 517z" horiz-adv-x="1421" />

<glyph glyph-name="youtube" unicode="&#xe833;" d="M560 166l0 399 382-200-382-199z m838 468c0 0-14 98-56 141-54 57-114 57-142 61-197 14-494 14-494 14l0 0c0 0-297 0-494-14-28-4-88-4-142-61-42-43-56-141-56-141 0 0-14-115-14-230l0-108c0-115 14-230 14-230 0 0 14-98 56-141 54-57 125-55 156-61 113-11 480-14 480-14 0 0 297 0 494 15 28 3 88 3 142 60 42 43 56 141 56 141 0 0 14 115 14 230l0 108c0 115-14 230-14 230l0 0z" horiz-adv-x="1412" />

<glyph glyph-name="spotify" unicode="&#xe834;" d="M795 405c-160 95-427 105-580 58-25-8-50 7-57 30-8 25 7 50 30 57 177 53 470 43 655-67 22-13 30-43 17-65-12-18-42-25-65-13m-5-140c-12-17-35-25-52-12-135 82-340 107-498 57-20-5-42 5-47 25-5 20 5 43 25 48 182 55 407 27 562-68 15-7 23-32 10-50m-60-137c-10-15-27-20-42-10-118 72-265 87-440 47-18-5-33 8-38 23-5 17 8 32 23 37 190 43 355 25 485-55 17-7 20-27 12-42m-230 722c-275 0-500-225-500-500 0-275 225-500 500-500 275 0 500 225 500 500 0 275-222 500-500 500" horiz-adv-x="1000" />

<glyph glyph-name="facebook-sq" unicode="&#xe835;" d="M55-150c-30 0-55 25-55 55l0 890c0 30 25 55 55 55l890 0c30 0 55-25 55-55l0-890c0-30-25-55-55-55l-255 0 0 387 130 0 19 151-149 0 0 97c0 43 12 73 75 73l80 0 0 135c-14 2-62 6-117 6-115 0-194-70-194-199l0-112-130 0 0-151 130 0 0-387-479 0z" horiz-adv-x="1000" />

<glyph glyph-name="close-thin" unicode="&#xe836;" d="M630 350l333-333c11-11 11-30 0-41-12-12-30-12-42 0l-333 333-332-333c-12-12-31-12-42 0-12 11-12 30 0 41l333 333-333 333c-12 11-12 30 0 42 11 11 30 11 42 0l332-333 333 333c12 11 30 11 42 0 11-12 11-31 0-42l-333-333z" horiz-adv-x="1176" />

<glyph glyph-name="check-thin" unicode="&#xe837;" d="M472 126l422 421c11 12 30 12 41 0 12-11 12-30 0-41l-442-443c-6-6-13-8-21-8-7 0-15 2-21 8l-207 208c-12 11-12 30 0 41 11 12 30 12 42 0l186-186z" horiz-adv-x="1176" />

<glyph glyph-name="back-thin" unicode="&#xe838;" d="M91 350l312-312c12-11 12-30 0-42-11-11-30-11-41 0l-333 333c-12 12-12 30 0 42l333 333c11 11 30 11 41 0 12-12 12-31 0-42l-312-312z" horiz-adv-x="1176" />

<glyph glyph-name="link-arrow" unicode="&#xe839;" d="M1312 385l-1206 0c-19 0-35-16-35-35 0-19 16-35 35-35l1206 0-333-332c-13-14-13-36 0-50 14-13 36-13 49 0l391 391c0 0 0 0 0 1 1 0 1 0 1 0 14 14 14 36 0 49l-394 394c-13 14-35 14-49 0-13-13-13-35 0-48l335-335z" horiz-adv-x="1500" />

<glyph glyph-name="minicart-icon-empty-alt" unicode="&#xe83b;" d="M732-150h-634a98 98 0 0 0-98 98v634a98 98 0 0 0 98 97h634a98 98 0 0 0 97-97v-634a98 98 0 0 0-97-98z m-634 781a49 49 0 0 1-49-49v-634a49 49 0 0 1 49-49h634a49 49 0 0 1 49 49v634a49 49 0 0 1-49 49z m146 24h-4a24 24 0 0 0-20 28 181 181 0 0 0 195 167 181 181 0 0 0 195-167 24 24 0 0 0-49-8 133 133 0 0 1-146 126 133 133 0 0 1-147-126 24 24 0 0 0-24-20z" horiz-adv-x="829" />

<glyph glyph-name="filter" unicode="&#xe83c;" d="M471 203c71 0 130-51 144-118l503 0c16 0 29-13 29-29 0-16-13-29-29-29l-503-1c-14-67-73-117-144-117-71 0-131 50-144 117l-268 1c-16 0-30 13-30 29 0 16 14 29 30 29l268 0c13 67 72 118 144 118z m0-59c-49 0-89-39-89-88 0-49 40-88 89-88 48 0 88 39 88 88 0 49-40 88-88 88z m411 353c72 0 131-50 145-118l91 0c16 0 29-13 29-29 0-16-13-29-29-29l-91 0c-14-67-73-118-145-118-71 0-130 51-144 118l-679 0c-16 0-30 13-30 29 0 16 14 29 30 29l679 0c14 68 73 118 144 118z m0-59c-48 0-88-39-88-88 0-49 40-88 88-88 49 0 89 39 89 88 0 49-40 88-89 88z m-588 353c71 0 131-50 144-117l680 0c16 0 29-14 29-30 0-16-13-29-29-29l-680 0c-13-67-73-118-144-118-71 0-130 51-144 118l-91 0c-16 0-30 13-30 29 0 16 14 30 30 30l91 0c14 67 73 117 144 117z m0-59c-49 0-88-39-88-88 0-49 39-88 88-88 49 0 88 39 88 88 0 49-39 88-88 88z" horiz-adv-x="1176" />

<glyph glyph-name="search" unicode="&#xe83d;" d="M438 850c241 0 437-196 437-437 0-110-40-210-107-287l220-220c12-12 12-32 0-44-12-12-32-12-44 0l-220 220c-77-67-177-107-286-107-242 0-438 196-438 438 0 241 196 437 438 437z m0-62c-208 0-375-168-375-375 0-208 167-375 375-375 207 0 375 167 375 375 0 207-168 375-375 375z" horiz-adv-x="1000" />

<glyph glyph-name="account" unicode="&#xe83e;" d="M909-59c0 176-183 318-409 318-226 0-409-142-409-318l-45 0c0 201 203 364 454 364 247 0 447-157 454-353l1-11c0-25-21-46-46-46l-818 0c-25 0-45 21-45 46l863 0z m-409 864c126 0 227-102 227-228 0-125-101-227-227-227-125 0-227 102-227 227 0 126 102 228 227 228z m0-46c-100 0-182-81-182-182 0-100 82-181 182-181 100 0 182 81 182 181 0 101-82 182-182 182z" horiz-adv-x="1000" />

<glyph glyph-name="bell-on" unicode="&#xf0f3;" d="M509-96q0 8-9 8-33 0-57 24t-23 57q0 9-9 9t-9-9q0-41 29-70t69-28q9 0 9 9z m455 160q0-29-21-50t-50-21h-250q0-59-42-101t-101-42-101 42-42 101h-250q-29 0-50 21t-21 50q28 24 51 49t47 67 42 89 27 115 11 145q0 84 66 157t171 89q-5 10-5 21 0 23 16 38t38 16 38-16 16-38q0-11-5-21 106-16 171-89t66-157q0-78 11-145t28-115 41-89 48-67 50-49z" horiz-adv-x="1000" />

<glyph glyph-name="star-half-outline" unicode="&#xf123;" d="M662 316l143 140-198 29-37 5-17 34-89 179v-537l33-17 178-94-34 198-6 37z m252 146l-202-197 48-279q2-19-4-29t-19-11q-9 0-22 7l-251 132-250-132q-13-7-23-7-12 0-19 11t-3 29l48 279-203 197q-18 18-13 33t30 20l280 40 126 254q11 23 27 23 16 0 28-23l125-254 280-40q25-4 31-20t-14-33z" horiz-adv-x="928.6" />

<glyph glyph-name="apple" unicode="&#xf179;" d="M777 172q-21-70-68-139-72-110-144-110-27 0-78 18-48 18-84 18-34 0-79-19-45-19-74-19-85 0-168 145-82 146-82 281 0 127 63 208 63 81 159 81 40 0 98-17 58-17 77-17 25 0 80 19 57 19 97 19 66 0 119-36 29-20 58-56-44-37-64-66-36-52-36-115 0-69 38-125t88-70z m-209 655q0-34-17-76-16-42-52-77-30-30-60-40-20-7-58-10 2 83 44 143 41 60 139 83 1-2 2-6t1-6q0-2 0-6t1-5z" horiz-adv-x="785.7" />

<glyph glyph-name="google" unicode="&#xf1a0;" d="M429 411h404q7-37 7-71 0-121-51-216t-145-149-215-54q-88 0-167 34t-137 91-91 137-34 167 34 167 91 137 137 91 167 34q167 0 287-113l-117-112q-68 67-170 67-72 0-133-37t-97-98-36-136 36-136 97-98 133-37q48 0 89 14t67 33 46 46 28 49 13 43h-243v147z" horiz-adv-x="857.1" />

<glyph glyph-name="paypal" unicode="&#xf1ed;" d="M848 490q10-47-3-114-48-248-315-248h-24q-14 0-25-9t-13-24l-3-11-30-193-1-8q-3-15-14-24t-25-9h-140q-12 0-18 8t-5 20q5 32 14 94t15 94 15 93 15 94q3 21 24 21h73q75-2 132 11 98 22 160 81 57 53 87 137 13 39 19 74 1 4 2 4t2 1 3-2q44-33 55-90z m-96 157q0-60-26-132-45-130-168-176-64-22-141-23 0-1-50-1l-51 1q-55 0-65-54-2-4-48-295 0-6-7-6h-164q-12 0-21 9t-6 22l130 821q2 16 15 26t29 11h333q19 0 55-7t62-18q60-23 91-69t32-109z" horiz-adv-x="857.1" />

<glyph glyph-name="bell-off" unicode="&#xf1f6;" d="M869 375q35-199 167-311 0-29-21-50t-51-21h-250q0-59-42-101t-101-42-100 42-42 100z m-298-480q9 0 9 9t-9 8q-32 0-56 24t-24 57q0 9-9 9t-9-9q0-41 29-70t69-28z m560 893q4-6 4-14t-6-12l-1045-905q-5-5-13-4t-12 6l-47 53q-4 6-4 14t6 12l104 90q-11 17-11 36 28 24 51 49t47 67 42 89 28 115 11 145q0 84 65 157t171 89q-4 10-4 21 0 23 16 38t37 16 38-16 16-38q0-11-4-21 69-10 122-46t82-88l234 202q5 5 13 4t12-6z" horiz-adv-x="1142.9" />

<glyph glyph-name="amazon" unicode="&#xf270;" d="M866 26q8 4 14 2t6-10-8-18q-7-9-25-25t-53-38-79-41-105-32-128-14q-66 0-132 17t-117 43-96 58-74 59-47 48q-5 6-6 10t1 6 4 4 7 1 6-2q107-65 168-93 217-98 445-50 106 22 219 75z m115 65q6-9 1-39t-15-58q-19-46-48-69-9-8-14-5t0 14q11 25 24 68t4 55q-3 3-9 6t-15 3-16 2-20 0-17-1-18-2-12-1q-3-1-7-1t-6-1-5 0-4 0h-6t-1 0-1 1l-1 1q-4 9 26 23t57 16q26 4 61 1t42-13z m-220 247q0-18 8-36t18-32 21-26 18-18l7-6-126-125q-23 21-45 42t-32 33l-11 11q-6 6-13 18-22-33-55-57t-71-35-78-13-77 12-65 36-47 63-17 91q0 47 16 86t40 65 59 46 69 32 72 19 67 11 55 3v71q0 36-11 54-19 30-68 30-3 0-9-1t-23-6-31-17-31-33-27-54l-164 15q0 34 12 67t38 63 60 53 84 36 107 14q55 0 101-14t72-34 45-47 25-48 7-41v-328z m-375-12q0-48 39-74 37-25 78-12 47 14 63 68 8 25 8 57v90q-33-1-62-7t-59-18-49-40-18-64z" horiz-adv-x="1000" />

<glyph glyph-name="sms" unicode="&#xf4ac;" d="M0 404q0 67 27 130t75 114 114 89 145 59 166 21 166-21 146-59 113-89 76-114 26-130q0-84-42-160t-112-131-168-88-205-33q-105 0-201 31l-121-85q-67-42-94-24t-12 100l25 125q-60 55-92 122t-32 143z" horiz-adv-x="1054.7" />
</font>
</defs>
</svg>
